<svg width="26" height="26" viewBox="0 0 26 26" fill="none" xmlns="http://www.w3.org/2000/svg">
<g clip-path="url(#clip0_404_3976)">
<path d="M12.5603 14.9762L17.4959 23.5025L15.5187 24.6178L10.5958 16.0936L10.4681 15.8723L9.51033 16.4171L5.38345 18.7668L3.4062 15.3679L8.49085 12.4584L3.4062 3.71724L5.38345 2.59985L10.4681 11.3665L12.6262 10.1214L14.5822 8.99131L15.5187 8.45071L15.6613 8.69758L17.4959 11.8497L12.4113 14.7208L12.5603 14.9762Z" fill="#FFA48D"/>
<path d="M10.5958 16.0937L9.64015 16.6385L5.38344 18.7669L9.51032 16.4172L10.4681 15.8723L10.5958 16.0937Z" fill="#B72136"/>
<path d="M21.7527 9.72123L17.496 11.8496L15.6613 8.69749L15.5187 8.45062L19.7755 6.32227L21.7527 9.72123Z" fill="#FF4842"/>
<path d="M21.7526 21.3742L19.7178 22.3916L17.4958 23.5026L12.5602 14.9763L12.4112 14.7209L16.6679 12.5925L21.7526 21.3742Z" fill="#FF4842"/>
<path d="M21.7527 21.3743L19.7755 22.4895L15.5187 24.6179L17.496 23.5026L19.718 22.3916L21.7527 21.3743Z" fill="#229EFF"/>
<path d="M21.7526 9.72144L16.6679 12.5926L12.4112 14.7209L17.4958 11.8498L21.7526 9.72144Z" fill="#B72136"/>
<path d="M14.5822 8.9915L12.6262 10.1216L10.4681 11.3667L5.38344 2.60004L9.64015 0.47168L14.5822 8.9915Z" fill="#FF4842"/>
</g>
<defs>
<clipPath id="clip0_404_3976">
<rect width="25.1146" height="25.1146" fill="white"/>
</clipPath>
</defs>
</svg>
