<svg width="90" height="90" viewBox="0 0 90 90" fill="none" xmlns="http://www.w3.org/2000/svg">
<path d="M64.4485 51.6257C62.8713 46.5171 60.7199 41.6228 58.0199 36.9514C56.7428 34.7485 55.3628 32.6314 53.8714 30.6C52.2 28.32 50.4 26.1342 48.4629 24.06C44.8029 20.1342 40.8943 16.9714 36.7286 14.5628C35.8371 14.0485 34.9629 13.5857 34.0971 13.1657C31.4057 11.8714 28.8171 11.0314 26.3486 10.6628C25.8943 10.5942 25.44 10.5428 24.9943 10.5085C22.3629 10.2942 19.9799 10.5514 17.8456 11.2971C17.0056 11.5799 16.2086 11.9399 15.4457 12.3771C12.7372 13.9199 10.5943 16.3371 9.01715 19.62C7.44001 22.9114 6.64285 26.94 6.64285 31.7228C6.64285 36.5057 7.44001 41.4342 9.01715 46.5514C10.5943 51.66 12.7372 56.5542 15.4457 61.2257C18.1543 65.8971 21.3343 70.1914 24.9943 74.1171C28.6543 78.0428 32.5714 81.2057 36.7286 83.6142C40.8943 86.0143 44.8029 87.3686 48.4629 87.6686C51.6771 87.9343 54.5314 87.48 57.0086 86.3143L57.8314 85.9029C57.8914 85.8686 57.9599 85.8343 58.0199 85.8C60.6171 84.3171 62.7 82.0285 64.26 78.9428C64.32 78.8142 64.3885 78.6857 64.4485 78.5571C66.0256 75.2657 66.8143 71.2372 66.8143 66.4543C66.8143 61.6715 66.0256 56.7428 64.4485 51.6257ZM36.7286 49.0885L28.4657 44.3142L12.66 35.1942C12.66 27.4799 14.9915 22.3029 19.6544 19.6372C21.0429 18.84 22.5343 18.3429 24.1114 18.1372C26.1943 17.8543 28.44 18.0857 30.8486 18.8314C32.7086 19.3971 34.6714 20.2799 36.7286 21.4713V49.0885Z" fill="#5BE584"/>
<path d="M30.8481 18.8313C30.1453 21.0513 29.8024 23.6484 29.8024 26.6227L24.2224 29.4084L12.6596 35.1941C12.6596 27.4798 14.9911 22.3028 19.6539 19.6371C21.0425 18.8399 22.5339 18.3428 24.111 18.1371C26.1939 17.8542 28.4396 18.0856 30.8481 18.8313Z" fill="#007B55"/>
<path d="M36.7281 30.617V49.0885L28.4653 44.3141L12.6596 35.1941L24.2224 29.4084L29.8024 26.6227L36.7281 30.617Z" fill="#00AB55"/>
<path d="M83.9566 57.8828C83.9566 62.6656 83.168 66.6942 81.5908 69.9856C80.0137 73.2685 77.8623 75.6856 75.1623 77.2285C74.648 77.5199 74.108 77.7856 73.5594 77.9999L73.3966 78.0771L57.8309 85.9029C57.8909 85.8686 57.9594 85.8343 58.0194 85.8C60.6165 84.3171 62.6995 82.0285 64.2595 78.9428C64.3195 78.8142 64.388 78.6856 64.448 78.5571C66.0251 75.2656 66.8137 71.2371 66.8137 66.4542C66.8137 61.6714 66.0251 56.7428 64.448 51.6256C62.8708 46.5171 60.7194 41.6228 58.0194 36.9514C56.7423 34.7485 55.3623 32.6314 53.8709 30.5999C52.1995 28.3199 50.3995 26.1342 48.4623 24.0599C44.8023 20.1342 40.8938 16.9714 36.7281 14.5628C35.8366 14.0485 34.9623 13.5856 34.0966 13.1656C31.4052 11.8714 28.8166 11.0314 26.3481 10.6628C25.8938 10.5942 25.4395 10.5428 24.9938 10.5085C22.3623 10.2942 19.9794 10.5513 17.8451 11.297L32.5881 3.8056C35.2966 2.26275 38.4766 1.63709 42.1366 1.93709C45.7966 2.23709 49.7138 3.59136 53.8709 5.99136C58.0366 8.39993 61.9452 11.5628 65.6052 15.4885C69.2652 19.4142 72.4537 23.7085 75.1623 28.3799C77.8623 33.0514 80.0137 37.9456 81.5908 43.0542C83.168 48.1714 83.9566 53.1085 83.9566 57.8828Z" fill="#00AB55"/>
<path d="M57.0089 86.3143L56.9146 86.3658L57.0089 86.3143Z" fill="#229EFF"/>
</svg>
