<svg width="30" height="30" viewBox="0 0 30 30" fill="none" xmlns="http://www.w3.org/2000/svg">
<g clip-path="url(#clip0_404_3966)">
<path d="M24.8516 15.0441L13.4402 21.55L9.05697 24.0479L0.563984 9.39941L2.68667 8.18774L9.05697 19.1764L11.3176 17.8879L13.4402 16.6762L22.7267 11.3819L22.8646 11.6193L24.8516 15.0441Z" fill="#5BE584"/>
<path d="M29.3728 12.7835L24.8516 15.044L22.8646 11.6193L22.7267 11.3819L27.2479 9.12134L29.3728 12.7835Z" fill="#00AB55"/>
<path d="M29.3728 12.7837L13.5781 21.7876L9.05698 24.0481L13.4402 21.5502L24.8516 15.0443L29.3728 12.7837Z" fill="#00AB55"/>
<path d="M13.4402 16.6763L11.3175 17.888L9.05696 19.1765L2.68665 8.18783L7.2078 5.92725L13.4402 16.6763Z" fill="#00AB55"/>
</g>
<defs>
<clipPath id="clip0_404_3966">
<rect width="29.8396" height="29.8396" fill="white"/>
</clipPath>
</defs>
</svg>
