<svg width="72" height="72" viewBox="0 0 72 72" fill="none" xmlns="http://www.w3.org/2000/svg">
<path d="M51.887 38.8506C51.6923 38.3253 51.4385 37.7942 51.1257 37.2571C51.0313 37.0978 50.9428 36.9443 50.8424 36.7968C50.028 35.5161 49.072 34.5601 47.9743 33.9286L46.3808 33.0079L30.1041 23.6184L26.9231 18.1299C26.5159 17.4217 26.0379 16.7843 25.5008 16.2178C24.9638 15.6512 24.3913 15.1909 23.7952 14.8486L19.5815 12.4171L12.2398 8.17975C11.1362 7.54237 10.1801 7.39483 9.36572 7.72533L9.08834 7.86106C8.2149 8.3627 7.77818 9.31287 7.77818 10.7234V41.4709C7.77818 42.8814 8.2149 44.3391 9.08834 45.8499C9.96178 47.3607 11.0123 48.4702 12.2398 49.1784L47.9743 69.8045C49.2018 70.5127 50.2523 70.619 51.1257 70.1232C51.9992 69.6216 52.4359 68.6655 52.4359 67.2609V41.6361C52.4359 40.7273 52.2529 39.8007 51.887 38.8506ZM42.8634 50.7424C42.4326 50.9902 41.9074 50.9253 41.27 50.5653L39.0392 49.2729V51.8342C39.0392 51.8342 39.0392 51.8991 39.0333 51.9286C39.0215 52.6014 38.809 53.0558 38.3959 53.2919C37.971 53.5338 37.4398 53.4748 36.8084 53.1089C36.171 52.743 35.6457 52.1942 35.2149 51.4565C34.8018 50.7483 34.5893 50.046 34.5775 49.3555C34.5716 49.3201 34.5716 49.2906 34.5716 49.2552V46.6938L32.3408 45.4073C31.7093 45.0414 31.1782 44.4866 30.7474 43.7489C30.3224 43.0112 30.1041 42.2794 30.1041 41.5535C30.1041 40.8276 30.3224 40.3437 30.7474 40.0958C31.1782 39.8538 31.7093 39.9129 32.3408 40.2788L34.5716 41.5712V39.0099C34.5716 38.284 34.7841 37.7942 35.2149 37.5522C35.6457 37.3102 36.171 37.3693 36.8084 37.7352C37.4398 38.1011 37.971 38.6499 38.3959 39.3876C38.4372 39.4584 38.4785 39.5293 38.5139 39.6001C38.868 40.267 39.0392 40.9279 39.0392 41.583V44.1502L39.3284 44.3155L41.27 45.4368C41.9074 45.8027 42.4326 46.3575 42.8634 47.0952C42.9047 47.166 42.9402 47.2309 42.9815 47.3017C43.3297 47.9686 43.5067 48.6296 43.5067 49.2906C43.5067 50.0165 43.2943 50.5004 42.8634 50.7424Z" fill="#5BE584" stroke="white" stroke-width="0.295082" stroke-linecap="round" stroke-linejoin="round"/>
<path d="M43.5068 49.2906C43.5068 50.0165 43.2944 50.5004 42.8636 50.7424C42.4327 50.9903 41.9075 50.9254 41.2701 50.5654L39.0393 49.2729L42.9816 47.3018C43.3298 47.9686 43.5068 48.6296 43.5068 49.2906Z" fill="#00AB55"/>
<path d="M38.5139 39.6001L34.5716 41.5713V39.01C34.5716 38.2841 34.784 37.7942 35.2149 37.5522C35.6457 37.3103 36.1709 37.3693 36.8083 37.7352C37.4398 38.1011 37.9709 38.65 38.3958 39.3877C38.4371 39.4585 38.4785 39.5293 38.5139 39.6001Z" fill="#007B55"/>
<path d="M39.3284 44.3155L34.5717 46.6939L32.3408 45.4073C31.7093 45.0414 31.1782 44.4867 30.7474 43.749C30.3224 43.0112 30.1041 42.2794 30.1041 41.5535C30.1041 40.8276 30.3224 40.3437 30.7474 40.0958C31.1782 39.8539 31.7093 39.9129 32.3408 40.2788L34.5717 41.5712L38.514 39.6001C38.8681 40.267 39.0392 40.928 39.0392 41.583V44.1503L39.3284 44.3155Z" fill="#00AB55"/>
<path d="M42.9814 47.3017L39.0391 49.2728V51.8341C39.0391 51.8341 39.0391 51.899 39.0332 51.9285C39.0214 52.6013 38.8089 53.0558 38.3958 53.2918C37.9709 53.5338 37.4398 53.4748 36.8083 53.1089C36.1709 52.743 35.6457 52.1941 35.2149 51.4564C34.8017 50.7482 34.5893 50.0459 34.5775 49.3554C34.5716 49.32 34.5716 49.2905 34.5716 49.2551V46.6938L39.3283 44.3154L41.2699 45.4367C41.9073 45.8026 42.4326 46.3574 42.8634 47.0951C42.9047 47.1659 42.9401 47.2308 42.9814 47.3017Z" fill="#007B55"/>
<path d="M64.2392 35.7345V61.3593C64.2392 62.7639 63.8025 63.72 62.9291 64.2216L62.6516 64.3573L51.1258 70.1232C51.9992 69.6216 52.4359 68.6655 52.4359 67.2609V41.6361C52.4359 40.7273 52.2529 39.8007 51.887 38.8506C51.6923 38.3253 51.4386 37.7942 51.1258 37.2571C51.0314 37.0978 50.9428 36.9443 50.8425 36.7968C50.0281 35.5161 49.072 34.5601 47.9742 33.9286L46.3809 33.0079L30.1041 23.6184L41.9074 17.7168L59.7775 28.027C61.0051 28.7352 62.0556 29.8447 62.9291 31.3555C63.8025 32.8663 64.2392 34.324 64.2392 35.7345Z" fill="#00AB55"/>
<path d="M41.9073 17.7169L30.104 23.6185L26.923 18.13C26.5158 17.4218 26.0379 16.7844 25.5008 16.2178C24.9638 15.6513 24.3912 15.1909 23.7952 14.8487L19.5814 12.4172L12.2398 8.1798C11.1362 7.54242 10.1801 7.39488 9.36568 7.72538L20.8916 1.95945C21.7651 1.46371 22.8155 1.56404 24.043 2.27814L35.5985 8.94702C36.1945 9.28931 36.767 9.74964 37.3041 10.3162C37.8411 10.8828 38.3191 11.5201 38.7263 12.2283L41.9073 17.7169Z" fill="#00AB55"/>
</svg>
