<svg width="28" height="28" viewBox="0 0 28 28" fill="none" xmlns="http://www.w3.org/2000/svg">
<g clip-path="url(#clip0_423_5462)">
<path d="M14.7618 19.1613L14.7447 19.172L14.7789 19.1913L14.7618 19.1613ZM12.5796 17.9012L12.5625 17.9119L12.5967 17.9312L12.5796 17.9012ZM10.3974 16.6411L10.3803 16.6518L10.4145 16.6711L10.3974 16.6411Z" fill="#229EFF"/>
<path d="M17.0447 10.8818L17.0297 10.8903L17.0147 10.8625L16.0627 9.22158L15.9386 9.00764L14.8625 9.62165L14.8475 9.63021L14.8325 9.6024L13.7564 7.74753L12.6803 8.36154L12.6653 8.3701L12.6503 8.34229L11.5742 6.48742L11.4886 6.53663L10.4831 7.10999L9.39199 5.22945L9.30642 5.27866L8.3009 5.84988L7.2098 3.96934L6.1187 4.58977L5.0276 2.70923V19.403L6.1187 18.7805L7.2098 20.6631L8.3009 20.0406L9.39199 21.9233L10.4831 21.3007L11.5742 23.1834L12.6653 22.5609L13.7564 24.4436L14.8475 23.821L15.9386 25.7037L17.0297 25.0811L18.1208 26.9638V10.2678L17.0447 10.8818ZM15.9386 21.5297L7.2098 16.4892V14.8204L8.75873 15.7147L9.30642 16.0313L10.3804 16.6517L10.3975 16.6411L10.4146 16.671L12.5626 17.9119L12.5797 17.9012L12.5968 17.9311L14.7448 19.172L14.7619 19.1613L14.779 19.1912L15.9386 19.8609V21.5297ZM15.9386 18.19L10.3098 14.9402L9.30642 14.3604L7.2098 13.1495V11.4808L8.75873 12.3751L9.30642 12.6917L11.4886 13.9518L15.9386 16.5212V18.19ZM15.9386 14.8525L10.3077 11.6006L9.30642 11.023L7.2098 9.81206V8.14118L8.76087 9.0376L9.30642 9.35209L11.4886 10.6122L15.9386 13.1816V14.8525Z" fill="#5BE584"/>
<path d="M8.75879 15.7148L7.20985 16.4893V14.8206L8.75879 15.7148Z" fill="#007B55"/>
<path d="M15.9386 19.8608V21.5296L7.20985 16.4891L8.75879 15.7146L9.30647 16.0312L10.3805 16.6517L10.4147 16.6709L12.5627 17.9118L12.5969 17.931L14.7448 19.1719L14.7791 19.1911L15.9386 19.8608Z" fill="#00AB55"/>
<path d="M15.9386 16.5212V18.1899L10.3099 14.9402L9.30647 14.3604L7.20985 13.1495L8.75879 12.375L9.30647 12.6916L11.4887 13.9517L15.9386 16.5212Z" fill="#00AB55"/>
<path d="M8.75879 12.375L7.20985 13.1495V11.4807L8.75879 12.375Z" fill="#007B55"/>
<path d="M15.9386 13.1819V14.8528L10.3077 11.6009L9.30647 11.0232L7.20985 9.81231L8.76092 9.03784L9.30647 9.35233L11.4887 10.6124L15.9386 13.1819Z" fill="#00AB55"/>
<path d="M8.76092 9.03777L7.20985 9.81223V8.14136L8.76092 9.03777Z" fill="#007B55"/>
<path d="M17.0149 10.8625L17.0299 10.8903L17.0449 10.8818L17.0149 10.8625ZM14.8327 9.6024L14.8477 9.63021L14.8627 9.62165L14.8327 9.6024ZM12.6505 8.34229L12.6655 8.3701L12.6805 8.36154L12.6505 8.34229Z" fill="#229EFF"/>
<path d="M21.2743 8.69094L18.5251 10.0644L18.1208 10.2677L17.0447 10.8817L17.0147 10.8624L16.0627 9.22151L15.9386 9.00757L20.2174 6.86816L21.2743 8.69094Z" fill="#00AB55"/>
<path d="M14.7278 4.91072L11.9786 6.28422L11.5743 6.48747L11.4887 6.53667L10.4832 7.11003L9.39207 5.2295L13.6709 3.09009L14.7278 4.91072Z" fill="#00C462"/>
<path d="M10.3633 2.39261L9.30642 2.92104L7.2098 3.96935L6.1187 4.58978L5.0276 2.70924L9.30642 0.569824L10.3633 2.39261Z" fill="#00C462"/>
<path d="M12.5455 3.65262L9.39205 5.22936L9.30647 5.27857L8.30095 5.84979L7.20985 3.96925L9.30647 2.92094L10.3633 2.3925L11.4887 1.82983L12.5455 3.65262Z" fill="#00AB55"/>
<path d="M16.9098 6.17068L14.1607 7.54418L13.7563 7.74742L12.6802 8.36143L12.6502 8.34217L11.5741 6.48731L11.9785 6.28406L14.7276 4.91056L15.8529 4.3479L16.9098 6.17068Z" fill="#00AB55"/>
<path d="M19.092 7.43093L15.9385 9.00767L14.8624 9.62168L14.8325 9.60243L13.7563 7.74756L14.1607 7.54432L16.9098 6.17082L18.0352 5.60815L19.092 7.43093Z" fill="#00C462"/>
<path d="M22.3996 8.12842V24.8244L18.1208 26.9638V10.2678L18.5252 10.0646L21.2743 8.69108L22.3996 8.12842Z" fill="#00AB55"/>
</g>
<defs>
<clipPath id="clip0_423_5462">
<rect width="27.5984" height="27.5984" fill="white"/>
</clipPath>
</defs>
</svg>
