<svg width="32" height="32" viewBox="0 0 32 32" fill="none" xmlns="http://www.w3.org/2000/svg">
<path d="M8.08325 11.4166C8.08325 9.57564 9.57564 8.08325 11.4166 8.08325C13.2575 8.08325 14.7499 9.57564 14.7499 11.4166V13.6388C14.7499 13.8971 14.7499 14.0263 14.7215 14.1323C14.6445 14.4198 14.4198 14.6445 14.1323 14.7215C14.0263 14.7499 13.8971 14.7499 13.6388 14.7499H11.4166C9.57564 14.7499 8.08325 13.2575 8.08325 11.4166Z" stroke="#919EAB" stroke-width="1.5"/>
<path d="M17.25 18.3611C17.25 18.1028 17.25 17.9736 17.2784 17.8677C17.3555 17.5801 17.5801 17.3555 17.8677 17.2784C17.9736 17.25 18.1028 17.25 18.3611 17.25H20.5833C22.4243 17.25 23.9167 18.7424 23.9167 20.5833C23.9167 22.4243 22.4243 23.9167 20.5833 23.9167C18.7424 23.9167 17.25 22.4243 17.25 20.5833V18.3611Z" stroke="#919EAB" stroke-width="1.5"/>
<path d="M8.08325 20.5833C8.08325 18.7424 9.57564 17.25 11.4166 17.25H13.4166C13.8833 17.25 14.1167 17.25 14.2949 17.3408C14.4517 17.4207 14.5792 17.5482 14.6591 17.705C14.7499 17.8833 14.7499 18.1166 14.7499 18.5833V20.5833C14.7499 22.4243 13.2575 23.9167 11.4166 23.9167C9.57564 23.9167 8.08325 22.4243 8.08325 20.5833Z" stroke="#919EAB" stroke-width="1.5"/>
<path d="M17.25 11.4166C17.25 9.57564 18.7424 8.08325 20.5833 8.08325C22.4243 8.08325 23.9167 9.57564 23.9167 11.4166C23.9167 13.2575 22.4243 14.7499 20.5833 14.7499H18.2024C18.0918 14.7499 18.0365 14.7499 17.99 14.7447C17.6037 14.7011 17.2988 14.3962 17.2552 14.0099C17.25 13.9634 17.25 13.9081 17.25 13.7975V11.4166Z" stroke="#919EAB" stroke-width="1.5"/>
</svg>
