<svg width="56" height="56" viewBox="0 0 56 56" fill="none" xmlns="http://www.w3.org/2000/svg">
<rect width="56" height="56" rx="28" fill="#E1FCE3"/>
<path d="M21.5 31.5C21.5 30.5572 21.5 30.0858 21.7929 29.7929C22.0858 29.5 22.5572 29.5 23.5 29.5H24.5C25.4428 29.5 25.9142 29.5 26.2071 29.7929C26.5 30.0858 26.5 30.5572 26.5 31.5V32.5C26.5 33.4428 26.5 33.9142 26.2071 34.2071C25.9142 34.5 25.4428 34.5 24.5 34.5C23.0858 34.5 22.3787 34.5 21.9393 34.0607C21.5 33.6213 21.5 32.9142 21.5 31.5Z" stroke="#00AB55" stroke-width="1.5"/>
<path d="M21.5 24.5C21.5 23.0858 21.5 22.3787 21.9393 21.9393C22.3787 21.5 23.0858 21.5 24.5 21.5C25.4428 21.5 25.9142 21.5 26.2071 21.7929C26.5 22.0858 26.5 22.5572 26.5 23.5V24.5C26.5 25.4428 26.5 25.9142 26.2071 26.2071C25.9142 26.5 25.4428 26.5 24.5 26.5H23.5C22.5572 26.5 22.0858 26.5 21.7929 26.2071C21.5 25.9142 21.5 25.4428 21.5 24.5Z" stroke="#00AB55" stroke-width="1.5"/>
<path d="M29.5 31.5C29.5 30.5572 29.5 30.0858 29.7929 29.7929C30.0858 29.5 30.5572 29.5 31.5 29.5H32.5C33.4428 29.5 33.9142 29.5 34.2071 29.7929C34.5 30.0858 34.5 30.5572 34.5 31.5C34.5 32.9142 34.5 33.6213 34.0607 34.0607C33.6213 34.5 32.9142 34.5 31.5 34.5C30.5572 34.5 30.0858 34.5 29.7929 34.2071C29.5 33.9142 29.5 33.4428 29.5 32.5V31.5Z" stroke="#00AB55" stroke-width="1.5"/>
<path d="M29.5 23.5C29.5 22.5572 29.5 22.0858 29.7929 21.7929C30.0858 21.5 30.5572 21.5 31.5 21.5C32.9142 21.5 33.6213 21.5 34.0607 21.9393C34.5 22.3787 34.5 23.0858 34.5 24.5C34.5 25.4428 34.5 25.9142 34.2071 26.2071C33.9142 26.5 33.4428 26.5 32.5 26.5H31.5C30.5572 26.5 30.0858 26.5 29.7929 26.2071C29.5 25.9142 29.5 25.4428 29.5 24.5V23.5Z" stroke="#00AB55" stroke-width="1.5"/>
<path d="M38 30C38 33.7712 38 35.6569 36.8284 36.8284C35.6569 38 33.7712 38 30 38" stroke="#00AB55" stroke-width="1.5" stroke-linecap="round"/>
<path d="M26 38C22.2288 38 20.3431 38 19.1716 36.8284C18 35.6569 18 33.7712 18 30" stroke="#00AB55" stroke-width="1.5" stroke-linecap="round"/>
<path d="M26 18C22.2288 18 20.3431 18 19.1716 19.1716C18 20.3431 18 22.2288 18 26" stroke="#00AB55" stroke-width="1.5" stroke-linecap="round"/>
<path d="M30 18C33.7712 18 35.6569 18 36.8284 19.1716C38 20.3431 38 22.2288 38 26" stroke="#00AB55" stroke-width="1.5" stroke-linecap="round"/>
</svg>
