<svg width="197" height="29" viewBox="0 0 197 29" fill="none" xmlns="http://www.w3.org/2000/svg">
<path d="M10.179 28.548C8.203 28.548 6.448 28.197 4.914 27.495C3.38 26.793 2.184 25.792 1.326 24.492C0.468 23.192 0.0260001 21.645 0 19.851H4.953C4.953 20.761 5.161 21.58 5.577 22.308C6.019 23.01 6.617 23.569 7.371 23.985C8.151 24.401 9.087 24.609 10.179 24.609C11.115 24.609 11.921 24.466 12.597 24.18C13.299 23.868 13.832 23.439 14.196 22.893C14.586 22.321 14.781 21.658 14.781 20.904C14.781 20.046 14.573 19.344 14.157 18.798C13.767 18.226 13.221 17.745 12.519 17.355C11.817 16.965 11.011 16.627 10.101 16.341C9.191 16.029 8.229 15.704 7.215 15.366C5.057 14.638 3.432 13.715 2.34 12.597C1.248 11.453 0.702 9.932 0.702 8.034C0.702 6.448 1.079 5.083 1.833 3.939C2.587 2.795 3.64 1.911 4.992 1.287C6.37 0.637 7.956 0.312001 9.75 0.312001C11.57 0.312001 13.156 0.637 14.508 1.287C15.886 1.937 16.965 2.847 17.745 4.017C18.551 5.161 18.967 6.539 18.993 8.151H14.001C13.975 7.475 13.793 6.851 13.455 6.279C13.117 5.681 12.623 5.2 11.973 4.836C11.349 4.446 10.582 4.251 9.672 4.251C8.892 4.225 8.19 4.355 7.566 4.641C6.968 4.901 6.487 5.291 6.123 5.811C5.785 6.305 5.616 6.929 5.616 7.683C5.616 8.411 5.772 9.022 6.084 9.516C6.422 9.984 6.903 10.387 7.527 10.725C8.151 11.037 8.879 11.336 9.711 11.622C10.543 11.908 11.453 12.22 12.441 12.558C13.793 13 15.015 13.546 16.107 14.196C17.225 14.82 18.109 15.639 18.759 16.653C19.409 17.667 19.734 18.98 19.734 20.592C19.734 21.996 19.37 23.309 18.642 24.531C17.914 25.727 16.848 26.702 15.444 27.456C14.04 28.184 12.285 28.548 10.179 28.548Z" fill="#007B55"/>
<path d="M29.4715 28.548C27.8855 28.548 26.5205 28.236 25.3765 27.612C24.2585 26.962 23.4005 26 22.8025 24.726C22.2045 23.426 21.9055 21.827 21.9055 19.929V8.424H26.5855V19.461C26.5855 21.151 26.9365 22.438 27.6385 23.322C28.3665 24.18 29.4585 24.609 30.9145 24.609C31.8505 24.609 32.6825 24.388 33.4105 23.946C34.1645 23.504 34.7495 22.867 35.1655 22.035C35.6075 21.177 35.8285 20.137 35.8285 18.915V8.424H40.5085V28.08H36.3745L36.0235 24.804C35.4255 25.948 34.5545 26.858 33.4105 27.534C32.2925 28.21 30.9795 28.548 29.4715 28.548Z" fill="#007B55"/>
<path d="M54.9976 28.548C53.9576 28.548 53.0216 28.405 52.1896 28.119C51.3576 27.859 50.6296 27.495 50.0056 27.027C49.3816 26.533 48.8616 25.974 48.4456 25.35L47.9386 28.08H43.7656V0H48.4456V11.31C49.0696 10.348 49.9146 9.555 50.9806 8.931C52.0466 8.281 53.3726 7.956 54.9586 7.956C56.8046 7.956 58.4296 8.411 59.8336 9.321C61.2636 10.205 62.3816 11.427 63.1876 12.987C64.0196 14.521 64.4356 16.289 64.4356 18.291C64.4356 20.241 64.0326 21.996 63.2266 23.556C62.4206 25.116 61.3026 26.338 59.8726 27.222C58.4686 28.106 56.8436 28.548 54.9976 28.548ZM54.0226 24.492C55.1146 24.492 56.0896 24.232 56.9476 23.712C57.8056 23.166 58.4686 22.438 58.9366 21.528C59.4306 20.592 59.6776 19.5 59.6776 18.252C59.6776 17.03 59.4306 15.951 58.9366 15.015C58.4686 14.079 57.8056 13.351 56.9476 12.831C56.0896 12.311 55.1146 12.051 54.0226 12.051C52.9046 12.051 51.9166 12.311 51.0586 12.831C50.2266 13.351 49.5636 14.079 49.0696 15.015C48.6016 15.951 48.3676 17.03 48.3676 18.252C48.3676 19.5 48.6016 20.592 49.0696 21.528C49.5636 22.438 50.2266 23.166 51.0586 23.712C51.9166 24.232 52.9046 24.492 54.0226 24.492Z" fill="#007B55"/>
<path d="M71.7865 28.08L75.9595 4.485H67.9255L68.5885 0.779999H89.2975L88.6345 4.485H80.6005L76.4665 28.08H71.7865Z" fill="#212B36"/>
<path d="M84.9191 28.08L88.3901 8.424H92.5631L92.3681 11.973C92.9921 11.141 93.7071 10.426 94.5131 9.828C95.3191 9.23 96.2291 8.775 97.2431 8.463C98.2571 8.125 99.3231 7.956 100.441 7.956L99.5831 12.909H97.9841C97.1781 12.909 96.4111 13 95.6831 13.182C94.9551 13.364 94.2921 13.663 93.6941 14.079C93.1221 14.495 92.6281 15.054 92.2121 15.756C91.7961 16.458 91.4971 17.342 91.3151 18.408L89.5991 28.08H84.9191Z" fill="#212B36"/>
<path d="M105.02 28.548C103.538 28.548 102.329 28.314 101.393 27.846C100.457 27.352 99.7813 26.689 99.3653 25.857C98.9493 25.025 98.7543 24.115 98.7803 23.127C98.8583 21.775 99.2873 20.605 100.067 19.617C100.873 18.603 101.978 17.823 103.382 17.277C104.786 16.731 106.437 16.458 108.335 16.458H113.288C113.47 15.392 113.47 14.521 113.288 13.845C113.132 13.169 112.781 12.662 112.235 12.324C111.715 11.986 110.974 11.817 110.012 11.817C108.972 11.817 108.023 12.064 107.165 12.558C106.333 13.026 105.735 13.754 105.371 14.742H100.769C101.159 13.338 101.835 12.142 102.797 11.154C103.759 10.14 104.916 9.36 106.268 8.814C107.646 8.242 109.115 7.956 110.675 7.956C112.521 7.956 114.042 8.281 115.238 8.931C116.434 9.555 117.279 10.465 117.773 11.661C118.267 12.831 118.358 14.248 118.046 15.912L115.94 28.08H111.806L111.962 24.96C111.598 25.48 111.182 25.961 110.714 26.403C110.246 26.845 109.713 27.235 109.115 27.573C108.543 27.885 107.919 28.119 107.243 28.275C106.567 28.457 105.826 28.548 105.02 28.548ZM106.697 24.843C107.425 24.843 108.114 24.713 108.764 24.453C109.44 24.167 110.038 23.777 110.558 23.283C111.104 22.789 111.546 22.23 111.884 21.606C112.222 20.956 112.456 20.28 112.586 19.578V19.5H108.335C107.399 19.5 106.593 19.63 105.917 19.89C105.267 20.124 104.76 20.475 104.396 20.943C104.058 21.385 103.876 21.918 103.85 22.542C103.798 23.296 104.032 23.868 104.552 24.258C105.072 24.648 105.787 24.843 106.697 24.843Z" fill="#212B36"/>
<path d="M128.501 28.548C126.759 28.548 125.238 28.184 123.938 27.456C122.664 26.702 121.689 25.662 121.013 24.336C120.363 22.984 120.077 21.437 120.155 19.695C120.233 18.005 120.584 16.458 121.208 15.054C121.832 13.624 122.69 12.389 123.782 11.349C124.874 10.283 126.122 9.451 127.526 8.853C128.93 8.255 130.451 7.956 132.089 7.956C134.559 7.956 136.522 8.619 137.978 9.945C139.46 11.245 140.214 13.052 140.24 15.366H135.326C135.274 14.274 134.884 13.442 134.156 12.87C133.428 12.272 132.505 11.973 131.387 11.973C130.243 11.973 129.19 12.285 128.228 12.909C127.292 13.533 126.525 14.404 125.927 15.522C125.355 16.614 125.043 17.875 124.991 19.305C124.939 20.111 125.004 20.852 125.186 21.528C125.368 22.178 125.641 22.737 126.005 23.205C126.369 23.647 126.824 23.985 127.37 24.219C127.916 24.453 128.514 24.57 129.164 24.57C129.944 24.57 130.659 24.44 131.309 24.18C131.985 23.92 132.583 23.53 133.103 23.01C133.623 22.49 134.026 21.879 134.312 21.177H139.226C138.68 22.633 137.874 23.92 136.808 25.038C135.768 26.156 134.533 27.027 133.103 27.651C131.673 28.249 130.139 28.548 128.501 28.548Z" fill="#212B36"/>
<path d="M153.759 28.08L146.583 17.199L155.943 8.424H161.754L150.288 18.564L150.678 15.756L159.414 28.08H153.759ZM140.616 28.08L145.569 0H150.249L145.296 28.08H140.616Z" fill="#212B36"/>
<path d="M168.816 28.548C167.074 28.548 165.566 28.184 164.292 27.456C163.018 26.728 162.056 25.701 161.406 24.375C160.782 23.049 160.509 21.502 160.587 19.734C160.665 18.096 161.003 16.575 161.601 15.171C162.199 13.741 163.018 12.493 164.058 11.427C165.124 10.335 166.359 9.49 167.763 8.892C169.193 8.268 170.753 7.956 172.443 7.956C174.211 7.956 175.706 8.32 176.928 9.048C178.15 9.776 179.06 10.764 179.658 12.012C180.256 13.234 180.516 14.638 180.438 16.224C180.438 16.744 180.386 17.29 180.282 17.862C180.178 18.408 180.061 18.915 179.931 19.383H163.941L164.487 16.38H175.836C175.94 15.392 175.823 14.56 175.485 13.884C175.173 13.208 174.692 12.688 174.042 12.324C173.418 11.96 172.677 11.778 171.819 11.778C170.857 11.778 169.934 11.999 169.05 12.441C168.166 12.883 167.399 13.546 166.749 14.43C166.125 15.288 165.696 16.38 165.462 17.706L165.267 18.837C165.059 19.981 165.085 20.995 165.345 21.879C165.631 22.763 166.125 23.452 166.827 23.946C167.529 24.44 168.413 24.687 169.479 24.687C170.571 24.687 171.507 24.453 172.287 23.985C173.093 23.517 173.73 22.893 174.198 22.113H178.956C178.384 23.335 177.591 24.44 176.577 25.428C175.589 26.39 174.432 27.157 173.106 27.729C171.806 28.275 170.376 28.548 168.816 28.548Z" fill="#212B36"/>
<path d="M180.858 28.08L184.329 8.424H188.502L188.307 11.973C188.931 11.141 189.646 10.426 190.452 9.828C191.258 9.23 192.168 8.775 193.182 8.463C194.196 8.125 195.262 7.956 196.38 7.956L195.522 12.909H193.923C193.117 12.909 192.35 13 191.622 13.182C190.894 13.364 190.231 13.663 189.633 14.079C189.061 14.495 188.567 15.054 188.151 15.756C187.735 16.458 187.436 17.342 187.254 18.408L185.538 28.08H180.858Z" fill="#212B36"/>
</svg>
