<svg width="52" height="52" viewBox="0 0 52 52" fill="none" xmlns="http://www.w3.org/2000/svg">
<path fill-rule="evenodd" clip-rule="evenodd" d="M46.9926 25.6322C46.9926 37.4292 37.4293 46.9925 25.6323 46.9925C13.8354 46.9925 4.27203 37.4292 4.27203 25.6322C4.27203 13.8353 13.8354 4.27197 25.6323 4.27197C37.4293 4.27197 46.9926 13.8353 46.9926 25.6322ZM34.2412 19.1594C34.8668 19.785 34.8668 20.7993 34.2412 21.425L23.5611 32.1051C22.9354 32.7307 21.9211 32.7307 21.2955 32.1051L17.0234 27.8331C16.3978 27.2074 16.3978 26.1931 17.0234 25.5675C17.649 24.9418 18.6634 24.9418 19.289 25.5675L22.4283 28.7067L27.2019 23.933L31.9756 19.1594C32.6012 18.5337 33.6156 18.5337 34.2412 19.1594Z" fill="#00AB55"/>
</svg>
