<svg width="40" height="40" viewBox="0 0 40 40" fill="none" xmlns="http://www.w3.org/2000/svg">
<path fill-rule="evenodd" clip-rule="evenodd" d="M35.9926 19.6322C35.9926 28.6678 28.6679 35.9925 19.6324 35.9925C10.5968 35.9925 3.27209 28.6678 3.27209 19.6322C3.27209 10.5967 10.5968 3.27197 19.6324 3.27197C28.6679 3.27197 35.9926 10.5967 35.9926 19.6322ZM26.2261 14.6745C26.7053 15.1537 26.7053 15.9306 26.2261 16.4098L18.046 24.5899C17.5668 25.0691 16.7899 25.0691 16.3107 24.5899L13.0386 21.3179C12.5595 20.8387 12.5595 20.0618 13.0386 19.5826C13.5178 19.1034 14.2947 19.1034 14.7739 19.5826L17.1783 21.987L20.8346 18.3308L24.4908 14.6745C24.97 14.1954 25.7469 14.1954 26.2261 14.6745Z" fill="#00AB55"/>
</svg>
