<svg width="20" height="20" viewBox="0 0 20 20" fill="none" xmlns="http://www.w3.org/2000/svg">
<path d="M2.08337 5.41659C2.08337 3.57564 3.57576 2.08325 5.41671 2.08325C7.25766 2.08325 8.75004 3.57564 8.75004 5.41659V7.63881C8.75004 7.89713 8.75004 8.0263 8.72165 8.13227C8.64459 8.41984 8.41997 8.64447 8.13239 8.72152C8.02642 8.74992 7.89725 8.74992 7.63893 8.74992H5.41671C3.57576 8.74992 2.08337 7.25753 2.08337 5.41659Z" stroke="#00AB55" stroke-width="1.5"/>
<path d="M11.25 12.3611C11.25 12.1028 11.25 11.9736 11.2784 11.8677C11.3555 11.5801 11.5801 11.3555 11.8677 11.2784C11.9736 11.25 12.1028 11.25 12.3611 11.25H14.5833C16.4243 11.25 17.9167 12.7424 17.9167 14.5833C17.9167 16.4243 16.4243 17.9167 14.5833 17.9167C12.7424 17.9167 11.25 16.4243 11.25 14.5833V12.3611Z" stroke="#00AB55" stroke-width="1.5"/>
<path d="M2.08337 14.5833C2.08337 12.7424 3.57576 11.25 5.41671 11.25H7.41671C7.88342 11.25 8.11677 11.25 8.29503 11.3408C8.45183 11.4207 8.57932 11.5482 8.65921 11.705C8.75004 11.8833 8.75004 12.1166 8.75004 12.5833V14.5833C8.75004 16.4243 7.25766 17.9167 5.41671 17.9167C3.57576 17.9167 2.08337 16.4243 2.08337 14.5833Z" stroke="#00AB55" stroke-width="1.5"/>
<path d="M11.25 5.41659C11.25 3.57564 12.7424 2.08325 14.5833 2.08325C16.4243 2.08325 17.9167 3.57564 17.9167 5.41659C17.9167 7.25753 16.4243 8.74992 14.5833 8.74992H12.2024C12.0918 8.74992 12.0365 8.74992 11.99 8.74468C11.6037 8.70115 11.2988 8.39624 11.2552 8.00989C11.25 7.96338 11.25 7.9081 11.25 7.79754V5.41659Z" stroke="#00AB55" stroke-width="1.5"/>
</svg>
