<svg width="20" height="20" viewBox="0 0 20 20" fill="none" xmlns="http://www.w3.org/2000/svg">
<path d="M3.33331 18.3335H16.6666" stroke="#637381" stroke-width="1.6" stroke-linecap="round"/>
<path d="M11.5734 3.05228L12.1913 2.43436C13.2151 1.41055 14.875 1.41055 15.8988 2.43436C16.9226 3.45816 16.9226 5.11807 15.8988 6.14187L15.2809 6.75979M11.5734 3.05228C11.5734 3.05228 11.6506 4.36535 12.8092 5.52395C13.9678 6.68255 15.2809 6.75979 15.2809 6.75979M11.5734 3.05228L5.89253 8.7331C5.50775 9.11788 5.31537 9.31027 5.14991 9.52239C4.95474 9.77263 4.7874 10.0434 4.65087 10.3299C4.53514 10.5727 4.4491 10.8308 4.27702 11.3471L3.54785 13.5346M15.2809 6.75979L9.60005 12.4406C9.21527 12.8254 9.02288 13.0178 8.81076 13.1832C8.56052 13.3784 8.28977 13.5457 8.0033 13.6823C7.76044 13.798 7.50233 13.8841 6.9861 14.0561L4.79859 14.7853M4.79859 14.7853L4.26387 14.9635C4.00983 15.0482 3.72975 14.9821 3.5404 14.7927C3.35105 14.6034 3.28493 14.3233 3.36961 14.0693L3.54785 13.5346M4.79859 14.7853L3.54785 13.5346" stroke="#637381" stroke-width="1.5"/>
</svg>
